<svg width="32" height="32" viewBox="0 0 32 32" xmlns="http://www.w3.org/2000/svg">
  <defs>
    <!-- 主题色渐变 -->
    <linearGradient id="bgGradient" x1="0%" y1="0%" x2="100%" y2="100%">
      <stop offset="0%" style="stop-color:#3182ce;stop-opacity:1" />
      <stop offset="100%" style="stop-color:#2c5aa0;stop-opacity:1" />
    </linearGradient>
    
    <!-- 数据可视化渐变 -->
    <linearGradient id="dataGradient" x1="0%" y1="100%" x2="0%" y2="0%">
      <stop offset="0%" style="stop-color:#4299e1;stop-opacity:1" />
      <stop offset="100%" style="stop-color:#63b3ed;stop-opacity:1" />
    </linearGradient>
    
    <!-- 阴影效果 -->
    <filter id="shadow" x="-50%" y="-50%" width="200%" height="200%">
      <feDropShadow dx="0" dy="2" stdDeviation="2" flood-color="#2c5aa0" flood-opacity="0.2"/>
    </filter>
  </defs>
  
  <!-- 背景圆形 -->
  <circle cx="16" cy="16" r="15" fill="url(#bgGradient)" filter="url(#shadow)"/>
  
  <!-- Cloudflare官方Logo（严格按照官方设计） -->
  <g transform="translate(16, 11) scale(0.8)">
    <!-- 主云朵部分（橙色） -->
    <path d="M5.493 6.4c.135-.52.08-.983-.161-1.338-.215-.328-.592-.519-1.05-.519l-8.663-.109a.148.148 0 01-.135-.082c-.027-.054-.027-.109-.027-.163.027-.082.108-.164.189-.164l8.744-.11c1.05-.054 2.153-.9 2.556-1.937l.511-1.31c.027-.055.027-.11.027-.164C6.92-2.09 4.66-4 1.942-4c-2.503 0-4.628 1.638-5.381 3.903a2.432 2.432 0 00-1.803-.491c-1.21.109-2.153 1.092-2.287 2.32-.027.328 0 .628.054.9C-9.44 2.688-11 4.326-11 6.319c0 .19.027.355.027.545 0 .082.08.137.161.137h15.983c.08 0 .188-.055.215-.164l.107-.437" fill="#ffffff"/>
    
    <!-- 右侧云朵部分（黄色） -->
    <path d="M8.238.75h-.242c-.054 0-.108.054-.135.109l-.35 1.2c-.134.52-.08.983.162 1.338.215.328.592.518 1.05.518l1.855.11c.054 0 .108.027.135.082.027.054.027.109.027.163-.027.082-.108.164-.188.164l-1.91.11c-1.05.054-2.153.9-2.557 1.937l-.134.355c-.027.055.026.137.107.137h6.592c.081 0 .162-.055.162-.137.107-.41.188-.846.188-1.31-.027-2.62-2.153-4.777-4.762-4.777" fill="#ffffff" opacity="0.95"/>
  </g>
  
  <!-- 数据分析可视化元素 -->
  <g transform="translate(6, 22)">
    <!-- 简洁的数据柱 -->
    <rect x="0" y="4" width="2" height="4" fill="url(#dataGradient)" rx="1" opacity="0.8"/>
    <rect x="3" y="2" width="2" height="6" fill="url(#dataGradient)" rx="1" opacity="0.8"/>
    <rect x="6" y="0" width="2" height="8" fill="url(#dataGradient)" rx="1" opacity="0.8"/>
    <rect x="9" y="3" width="2" height="5" fill="url(#dataGradient)" rx="1" opacity="0.8"/>
    <rect x="12" y="1" width="2" height="7" fill="url(#dataGradient)" rx="1" opacity="0.8"/>
    <rect x="15" y="2" width="2" height="6" fill="url(#dataGradient)" rx="1" opacity="0.8"/>
    <rect x="18" y="0" width="2" height="8" fill="url(#dataGradient)" rx="1" opacity="0.8"/>
    
    <!-- 数据趋势线 -->
    <polyline 
      points="1,4 4,2 7,0 10,3 13,1 16,2 19,0" 
      fill="none" 
      stroke="#ffffff" 
      stroke-width="1.5" 
      stroke-linecap="round" 
      stroke-linejoin="round"
      opacity="0.9"
    />
    
    <!-- 数据点 -->
    <circle cx="1" cy="4" r="1" fill="#ffffff" opacity="0.9"/>
    <circle cx="7" cy="0" r="1" fill="#ffffff" opacity="0.9"/>
    <circle cx="13" cy="1" r="1" fill="#ffffff" opacity="0.9"/>
    <circle cx="19" cy="0" r="1" fill="#ffffff" opacity="0.9"/>
  </g>
</svg>